<?xml version="1.0" encoding="UTF-8"?>
<!DOCTYPE svg PUBLIC "-//W3C//DTD SVG 1.1//EN" "http://www.w3.org/Graphics/SVG/1.1/DTD/svg11.dtd">
<!-- Creator: CorelDRAW 2020 (64-Bit) -->
<svg xmlns="http://www.w3.org/2000/svg" xml:space="preserve" width="10.8304in" height="10.7765in" version="1.1" style="shape-rendering:geometricPrecision; text-rendering:geometricPrecision; image-rendering:optimizeQuality; fill-rule:evenodd; clip-rule:evenodd"
viewBox="0 0 11218.11 11162.28"
 xmlns:xlink="http://www.w3.org/1999/xlink"
 xmlns:xodm="http://www.corel.com/coreldraw/odm/2003">
 <defs>
  <style type="text/css">
   <![CDATA[
    .fil2 {fill:#FEFEFE}
    .fil3 {fill:#008797}
    .fil8 {fill:#98C4C7}
    .fil4 {fill:#DA251D}
    .fil7 {fill:#E5F0F1}
    .fil6 {fill:#FDFDFD}
    .fil5 {fill:white}
    .fil1 {fill:#FEFEFE;fill-rule:nonzero}
    .fil0 {fill:#008797;fill-rule:nonzero}
   ]]>
  </style>
 </defs>
 <g id="Layer_x0020_1">
  <metadata id="CorelCorpID_0Corel-Layer"/>
  <g id="_882258352">
   <path class="fil0" d="M5633.93 9.5c995.98,384.35 1969.76,862.92 2903.4,1511.62 934.32,649.17 1828.52,1468.53 2664.64,2534.01l16.14 20.57 -1.41 26.07c-57.76,1065.97 -212.01,2139.97 -540.46,3228.42 -328.65,1089.13 -831.65,2192.81 -1586.72,3317.44l-14.69 21.87 -25.41 6.77c-1030.96,274.28 -2099.9,459.37 -3237.37,483.35 -1137.86,23.99 -2342.94,-113.23 -3645.18,-483.62l-25 -7.12 -14.28 -22.07c-579.69,-896.13 -1086.16,-1855.68 -1460.33,-2929.68 -374.32,-1074.39 -616.14,-2262.93 -666.3,-3616.46l-0.97 -26.05 16.52 -20.33c672.9,-827.95 1428.93,-1606.02 2335.02,-2293.98 906.51,-688.29 1962.11,-1285.63 3233.28,-1751.37l24.46 -8.96 24.64 9.51zm2823.75 1626.18c-916.59,-636.84 -1872.1,-1108 -2849.27,-1486.77 -1247.31,459.68 -2283.32,1046.79 -3172.84,1722.17 -888.35,674.5 -1631.8,1437.86 -2294.45,2250.73 51.72,1327.65 290.02,2494.38 657.63,3549.51 367.08,1053.61 863.24,1996.46 1431.32,2877.53 1279.22,361.24 2462.51,495.22 3579.27,471.66 1115.07,-23.52 2165.23,-204.12 3179.17,-472.25 738.36,-1104.31 1231.29,-2188.19 1554.08,-3257.9 322.45,-1068.59 475.28,-2123.02 533.54,-3169.56 -822.27,-1043.74 -1700.85,-1847.58 -2618.45,-2485.13z"/>
   <path class="fil1" d="M5634.15 162.28c968.06,373.58 1914.55,838.74 2822.02,1469.25 908.15,630.99 1777.31,1427.4 2590,2463.02l16.14 20.57 -1.41 26.07c-56.14,1036.09 -206.07,2079.99 -525.31,3137.93 -319.45,1058.62 -808.34,2131.38 -1542.27,3224.51l-14.69 21.87 -25.41 6.77c-1002.05,266.59 -2041.03,446.48 -3146.63,469.8 -1105.99,23.32 -2277.31,-110.06 -3543.06,-470.07l-25 -7.12 -14.28 -22.07c-563.44,-871.01 -1055.7,-1803.66 -1419.39,-2847.56 -363.84,-1044.31 -598.89,-2199.54 -647.64,-3515.15l-0.97 -26.05 16.52 -20.32c654.02,-804.72 1388.87,-1560.98 2269.58,-2229.68 881.14,-669.02 1907.16,-1249.63 3142.7,-1702.32l24.46 -8.96 24.65 9.51zm2742.37 1583.82c-890.42,-618.67 -1818.64,-1076.41 -2767.89,-1444.41 -1211.68,446.63 -2218.12,1017 -3082.26,1673.13 -862.97,655.22 -1585.24,1396.77 -2229.01,2186.42 50.32,1289.74 281.84,2423.16 638.98,3448.21 356.59,1023.52 838.55,1939.47 1390.38,2795.42 1242.72,350.85 2392.25,480.98 3477.14,458.1 1083.21,-22.85 2103.4,-198.27 3088.43,-458.7 717.2,-1072.79 1196.05,-2125.77 1509.63,-3164.96 313.24,-1038.07 461.74,-2062.41 518.4,-3079.07 -798.83,-1013.88 -1652.39,-1794.77 -2543.8,-2414.13z"/>
   <path class="fil2" d="M5609.06 408.41c1860.74,718.06 3638.62,1788.28 5200.12,3778.1 -107.93,1991.57 -576.37,4013.15 -1986.27,6113.1 -1927.44,512.78 -3994.83,691.97 -6427.69,0 -1083.31,-1674.65 -1892.58,-3585.48 -1986.27,-6113.1 1257.93,-1547.77 2825.16,-2907.92 5200.12,-3778.1z"/>
   <path class="fil0" d="M5646.7 311.03c938.05,361.99 1855.13,812.7 2734.37,1423.59 880.26,611.61 1722.68,1383.52 2510.34,2387.24l24.21 30.86 -2.12 39.11c-54.4,1003.92 -199.66,2015.4 -508.98,3040.45 -309.63,1026.11 -783.51,2065.91 -1494.88,3125.43l-22.05 32.83 -38.1 10.14c-970.54,258.21 -1977.17,432.45 -3048.87,455.05 -1072.26,22.62 -2207.6,-106.62 -3434.07,-455.46l-37.49 -10.67 -21.43 -33.1c-545.88,-843.85 -1022.83,-1747.53 -1375.29,-2759.2 -352.66,-1012.25 -580.49,-2131.98 -627.75,-3407.1l-1.45 -39.09 24.76 -30.47c633.49,-779.46 1345.49,-1512.15 2199.18,-2160.34 854.3,-648.64 1848.78,-1211.46 3045.95,-1650.09l36.68 -13.44 36.97 14.26zm2614.89 1595.45c-853.69,-593.14 -1743.37,-1032.73 -2653.17,-1386.35 -1161.4,429.53 -2126.48,977 -2955.3,1606.29 -827.03,627.94 -1520.15,1338.58 -2138.31,2095.47 49.58,1236.28 272.16,2323.29 614.76,3306.65 341.81,981.09 803.31,1859.72 1331.78,2680.98 1191.97,335.13 2294.6,459.47 3335.18,437.52 1038.07,-21.89 2016.51,-189.41 2961.57,-438.41 686.31,-1029.04 1145.09,-2039.16 1445.92,-3036.1 300.33,-995.26 443.48,-1977.41 498.62,-2952.17 -766.85,-971.1 -1585.88,-1719.71 -2441.07,-2313.89z"/>
   <path class="fil3" d="M6322.4 8987.44l-88.75 -0.44c24.56,-64.36 61.32,-133.26 88.95,-196.56 12.9,-29.54 76.17,-184.46 98.18,-190.41l73.78 0c26.37,0 42.01,57.6 55.71,85.2l139.81 301.78 -104.39 0.46c-44.25,-105.2 -6.83,-85.73 -197.71,-85.73 -24.86,0 -24.47,16.63 -34.92,42.9 -10.72,26.98 -6.7,32.73 -30.67,42.8zm-2139.66 -1.24l-97.47 1.24c16.67,-53.6 63.41,-145.26 88.23,-198.43 16.1,-34.47 27.91,-61.83 43.88,-95.39 19.47,-40.95 32.66,-88.71 55.54,-93.59 24.98,-5.35 76.06,-5.08 93.26,15.03l175.63 371.61 -104.86 0.94c-7.57,-20.46 -27.33,-79.66 -49.27,-85.86l-155.76 0c-25.81,20.43 -30.27,55.29 -49.18,84.46zm-435.68 -121.82l83.08 -8.8 26.92 55.69c21.1,18.01 50.37,9.46 72.78,3.35 27.08,-60.63 13.8,-232.6 13.93,-314.35l96.85 0.87c0.39,114.9 26.85,301.14 -45.81,362.21 -45.78,38.48 -237.87,78.03 -247.74,-98.96zm2008.24 -41.93c47.78,23.73 115.47,111.8 142.92,165.16 -123.2,-0.28 -102.91,13.99 -164.38,-67.34 -36.91,-48.84 -56.74,-98.68 -147.25,-88.34l-0.11 155.63 -97.26 -0.89 -0.15 -383.46c68.5,-11.57 283.37,-9.33 328.64,19.99 31.06,20.12 56.96,71.61 40.58,121.84 -16,49.02 -62.8,54.48 -102.99,77.42zm155.73 -222.22l362.03 0.17 0.08 69.53 -129.04 0.79 -3.27 316.59 -96.47 0.07 -0.69 -316.34 -132.84 -0.57 0.19 -70.23zm-1088.46 149.39c9.49,25.25 148.24,208.78 170.25,227.88l172.89 -377.56 102.98 -0.02 179.73 386.87 -101.57 0.31c-8.88,-14.4 -14.45,-24.8 -22.23,-42.4 -22.92,-51.82 -15.56,-51.95 -199.64,-40.98l-32.43 83.74 -220.35 0.01c-18.42,-31.66 -37.1,-57.37 -59.31,-89.04l-64.48 -85.13c-15.56,10.81 -24.13,17.42 -37.7,29.92 -40.31,37.13 -28.91,33.32 -29.01,144.01l-96.56 0.02 -0.22 -386.71 96.79 0.07 0.09 159.9 120.57 -104.72c71.72,-71.39 51.17,-56.64 179.74,-55.55 -28.69,46.8 -117.92,101.35 -159.54,149.37zm1187.8 -745.49l33.3 -0.24 32.8 0.03 30.62 0.88 0.33 384.51 -97.13 2.56 0.08 -387.75zm-2138.26 387.24l-90.23 0.23 0 -387.77c95.69,-0.03 85.18,-13.01 132.52,54.85l133.83 180.29c1.09,1.02 3.35,2.9 5.09,4.27l0.14 -238.25 90.67 -1.39 0.82 388.26c-112.59,0 -82.56,20.72 -181.74,-119.45 -29,-40.99 -59.31,-79.6 -89.56,-118.99l-1.54 237.95zm1957.04 -165.43c50.29,36.87 104.71,104.76 139.73,164.54l-114.69 1.38c-17.79,-33.26 -48.68,-68.15 -74.08,-100.27 -32.55,-41.17 -50.85,-58.93 -122.93,-59.3l0 158.02 -97.02 1.36 0.1 -387.46c80.83,-1 273.44,-16.05 328.06,23.96 28.24,20.67 55.24,65.54 40.85,115.13 -6.16,21.26 -17.25,37.63 -37.85,52.07l-62.17 30.57zm-586.78 99.55l245.94 -4.29 0.25 70.33 -340.78 0.71c-6.14,-12.56 -2.27,14.6 -7.1,-19.62l-0.2 -369.68 340.32 -0.27 -0.65 73.3 -240.58 0.08 0 75.13 224.04 0.03 0.48 73.55 -224.52 0.18 2.79 100.55zm-911.61 -174.37l225.68 1.71 0.25 68.65 -225.93 2.75 0.85 96.12 251.14 1.42 0.13 67.94 -349.21 0.31 0.08 -385.1 340.29 -0.04 -0.66 68.39 -242.61 2.21 0 75.63zm634.38 114.83l-102.65 -15.29 -0.19 -69.57 201.53 -0.74 -0.58 162.71c-84.3,31.86 -163.05,82.99 -286.86,42.24 -83.01,-27.33 -151.91,-103.8 -137.27,-218.01 28.92,-225.91 395.52,-214.51 417.09,-52.62l-96.39 15.66c-28.45,-92.85 -220.85,-91.68 -222.06,61.79 -0.52,68.06 25.67,112.19 79.89,127.85 25.91,7.47 142.84,20.52 147.49,-54.02zm1992.78 -859.05l82.7 -0.61c21.71,11.47 12.2,31.86 12.07,89.05 -0.15,72.44 4.4,251.18 -3.07,300.92 -31.33,10.11 -70.36,10.8 -100.87,-0.91l-2.32 -365.85c3.53,-21.12 -0.8,-11.9 11.49,-22.6zm-1889.28 -0.07l95.54 -0.03 1.13 388.43 -94.79 0.92 -1.88 -389.32zm-378.04 3.87l97.32 0 0.06 314.39 223.91 0.03 -0.71 71.01 -318.48 0.04 -2.1 -385.47zm-72.49 240.4c-48.57,230.95 -494.76,200.33 -431.2,-103.07 47.35,-226.06 494,-195.44 431.2,103.07zm1973.39 144.18l-87.48 0.93 -2.34 -389.53 93.16 -0.34c22.91,40.16 56.22,80.3 86.76,123.19 28.94,40.62 57.13,85.05 90.82,120.77l1.51 -243.46 88.75 -0.28 0.4 389.38 -93.94 -0.35c-36.18,-43.7 -140.74,-205.7 -176.92,-236.15l-0.72 235.85zm-2712.52 -144.46l-1.25 144.46 -94.26 0.88 -1.88 -389.32c121.35,-1.99 306.14,-28.05 343.6,80.41 23.14,66.98 -13.7,119.35 -54.01,142.49 -50.16,28.8 -127.62,21.08 -192.21,21.08zm1846.17 -97.21l223.91 2.55 3.16 69.32 -225.91 1.56 -0.93 95.93 251.37 2.39 -0.77 69.83 -345.87 0.83 -2.2 -387.23 339.28 -2.34 1.47 70.76 -243.13 1.46 -0.38 74.95zm-511.18 -147.04l361.37 -0.06 0.54 71.21 -131.89 0.42 -0.34 316.83 -94.79 1.24 -2.08 -317.01 -132.66 -1.31 -0.15 -71.33zm2151.49 154.36c39.1,61.98 162.4,199.12 169.56,235.2l-113.45 0 -124.42 -176.99c-103.02,51.93 -66.31,111.23 -74.23,176.87l-92.57 -0.61 -2.15 -386.57 96.19 -2.2 1.05 162.39c43.76,-21.33 162.31,-162.54 195.48,-162.54l112.59 0.71 -168.06 153.74zm-1080.44 -11.72c20.3,72.53 158.95,193.52 169.3,246.93l-116.32 0.15 -120.76 -177.54c-87.28,46 -71.89,74.58 -71.89,177.39l-97.28 -0.05 0.27 -389.6 95.13 0 2.29 166.68c11.02,-18.48 95.65,-84.85 120.21,-109.78 68.28,-69.3 59.22,-61.18 185.45,-56.06 -32.29,32.51 -131.95,124.04 -166.4,141.88zm-422.12 -3292.55c-12.22,102.6 -199.37,384.69 -286.22,468.05 -112.67,108.13 -124.97,135.86 -261.82,238.21 -478.5,357.95 -1180.81,508.43 -1746.75,253.25 -90.82,-40.95 -160.99,-82.85 -237.03,-140.15l-63.02 -52.58c97.78,10.39 218.76,48.23 332.3,61.92 558.76,67.42 1118.06,-62.09 1552.28,-399.39 115.01,-89.33 319.07,-297.55 363.57,-429.83l-319.06 5c68.68,-138.41 161.97,-188.16 246.57,-505.27 58.74,-220.11 61.53,-450.5 14.06,-674.55 -65.14,-307.41 -203.73,-521.58 -387.82,-736.05 -35.96,-41.9 -143.53,-151.2 -192.23,-176.49 15.91,34.28 48.56,72.61 72.01,108.16 296.76,450.16 341.6,1065.73 100.54,1552.2 -43.77,88.33 -79.29,153.55 -131.29,229.71 -61.67,90.35 -131.24,159.86 -156.65,198.1 95.56,0.31 352.6,-11.82 428.56,4.72 -184.11,228.66 -520.27,492.85 -915.7,612.61 -471.11,142.67 -921.56,65.72 -1164.09,-221.12 170.72,21.65 208.95,62.71 472.89,68.78 314.02,7.23 604.48,-70.31 864.24,-223.82 74.15,-43.84 251.18,-174.23 302.69,-236.88 -113.55,-20.48 -425.44,-4.28 -559.97,-4.28 -556.04,0 -1112.06,0 -1668.09,0l0 5308.06 6094.95 -0.07 8.15 -5308.21 -291.1 4.4c259.25,1463.79 -1260.85,3009.99 -2743.47,2580.08 -157.54,-45.68 -443.59,-168.41 -533.58,-254.08 92.47,13.84 189.26,40.36 287.88,55.82 319.11,49.99 628.12,49.76 941.55,-19.2 376.22,-82.78 675.38,-267.37 900.99,-459.48 555.52,-472.98 831.43,-1123.51 809.97,-1906.92l313.82 2.65c-32.63,-206.46 -157.77,-443.97 -254.19,-582.5 -83.18,-119.52 -299.58,-364.83 -418.06,-421.08 17.78,37.95 42.85,68.64 66.72,108.51 159.66,266.64 256.18,573.96 273.3,892.35l-294.9 1.36c19.75,403.89 -57.63,808.19 -230.51,1106.05 -158.71,273.47 -380.99,525.02 -629.36,715.07 -566.04,433.13 -1337.96,557.82 -2074.58,181.44 707.58,28.04 1303.18,29.41 1885.7,-411.43l155.51 -139.59c386.16,-414.24 546.3,-837.71 583.89,-1447.08 48.74,-16.2 224.62,-4.44 290.34,-6.88 -25.24,-301.14 -104.26,-533.55 -221.96,-767.92 -58.34,-116.2 -312.41,-490.38 -443.81,-544.2 19.22,44.28 56.31,92.76 80.38,137.04 84.6,155.72 131.03,257.26 186.15,436.94 70.34,229.29 95.43,485.11 93.41,738.74l-260.78 4.32c-62,531.31 -291.51,883.25 -632.17,1222.9 -308.01,307.09 -760.4,576.05 -1226.82,625.6 -349.7,37.15 -754.92,-71.98 -973.93,-242.19 343.9,40.18 611.45,62.79 954.33,-15.19 362.94,-82.54 624.81,-219.71 884.9,-426.39 25.12,-19.95 44.23,-40.65 69.71,-61.31 28.68,-23.26 43.7,-35.09 70.3,-61.1 277.73,-271.53 467.78,-618.03 519.53,-1046.41l319.75 -0.02 6.12 -122.79c6.48,-331.65 -79.41,-632.32 -254.63,-907.54 -53.51,-84.03 -167.86,-224.36 -235.81,-280.56 -23.27,-19.24 -46.22,-42.74 -70.2,-60.97 -15.23,-11.57 -56.68,-40.16 -65.13,-49.8 18.62,72.83 263.66,389.79 300.59,995.35 3.89,63.76 -8.71,416.54 -7.01,425.46l-311.73 2.61c-140.26,600.01 -586.33,1015.48 -1057.86,1245.56 -261.23,127.45 -605.55,218.82 -944.49,201.28 -327.15,-16.93 -656.22,-145.82 -825.15,-316.85 51.42,3.29 141.81,30.86 200.87,41.62 473.18,86.18 992.11,37.42 1418.35,-166.35 233.45,-111.6 424.2,-246.91 563.23,-395.86 139.98,-149.96 304.67,-414.92 337.93,-611.16l296.73 -0.37c131,-549.68 -34.45,-1141.6 -400.64,-1549.33 -49.29,-54.89 -84.49,-93.11 -145.61,-139.95 16.08,43.23 65.54,115.41 92.09,168.36 195.97,390.83 264.09,872.7 193.51,1308.96 -7.64,47.26 -41.9,179.78 -39.33,211.79l-273.83 0.14z"/>
   <path class="fil4" d="M3766.78 2591.45c-284.11,56.92 -540.23,310.94 -472.31,669.33 52.56,277.33 343.86,514.58 697.25,452.3 276.36,-48.71 537.62,-314.98 473.38,-665.78 -50.3,-274.76 -344.17,-526.77 -698.33,-455.85z"/>
   <path class="fil5" d="M5862.88 4256.66l-346.68 -0.51c-44.5,132.28 -248.56,340.5 -363.57,429.83 -434.22,337.3 -993.52,466.81 -1552.28,399.39 -113.53,-13.69 -234.52,-51.53 -332.3,-61.92l63.02 52.58c76.03,57.3 146.2,99.19 237.03,140.15 565.94,255.18 1268.25,104.7 1746.75,-253.25 136.84,-102.36 149.15,-130.09 261.82,-238.21 86.86,-83.36 274,-365.46 286.22,-468.05z"/>
   <path class="fil3" d="M5516.2 4256.15l346.68 0.51c6.49,-58.16 51.26,-169.96 66.14,-245.38 57.69,-292.13 45.88,-576.26 -35.73,-857.78 -102.3,-352.92 -294.19,-600.17 -494.42,-773.04 163.17,303.7 254.61,512.26 286.84,884.82 23.98,277.26 -6.26,520.05 -85.01,778.39 -23.7,77.77 -60.19,141.59 -84.5,212.47z"/>
   <path class="fil5" d="M5218.87 8708.11l53.46 123.27 -112.49 -2.1 59.02 -121.17zm-396.3 41.53c41.62,-48.02 130.85,-102.56 159.54,-149.37 -128.57,-1.09 -108.02,-15.84 -179.74,55.55l-120.57 104.72 -0.09 -159.9 -96.79 -0.07 0.22 386.71 96.56 -0.02c0.09,-110.69 -11.3,-106.88 29.01,-144.01 13.58,-12.5 22.14,-19.11 37.7,-29.92l64.48 85.13c22.2,31.67 40.89,57.38 59.31,89.04l220.35 -0.01 32.43 -83.74c184.08,-10.97 176.73,-10.84 199.64,40.98 7.78,17.6 13.35,28 22.23,42.4l101.57 -0.31 -179.73 -386.87 -102.98 0.02 -172.89 377.56c-22.01,-19.11 -160.75,-202.63 -170.25,-227.88z"/>
   <path class="fil5" d="M5588.68 8672.13c79.28,-5.69 212.22,-20.1 161.8,78.61 -36.72,11.7 -118.13,12.93 -164.23,7.04l2.43 -85.65zm166.62 150.33c40.19,-22.94 86.99,-28.4 102.99,-77.42 16.39,-50.23 -9.52,-101.72 -40.58,-121.84 -45.27,-29.32 -260.15,-31.55 -328.64,-19.99l0.15 383.46 97.26 0.89 0.11 -155.63c90.51,-10.34 110.34,39.5 147.25,88.34 61.47,81.33 41.18,67.06 164.38,67.34 -27.45,-53.36 -95.14,-141.44 -142.92,-165.16z"/>
   <path class="fil5" d="M5657.35 8075.12c74.51,0 129.23,-10.3 171.4,19.9 13.04,85.01 -46.84,69.99 -169.56,70.18l-2.03 -30.41 0.18 -59.66zm233.96 120.26c20.6,-14.44 31.69,-30.8 37.85,-52.07 14.39,-49.6 -12.62,-94.46 -40.85,-115.13 -54.62,-40.01 -247.22,-24.96 -328.06,-23.96l-0.1 387.46 97.02 -1.36 0 -158.02c72.08,0.37 90.38,18.13 122.93,59.3 25.4,32.12 56.29,67.02 74.08,100.27l114.69 -1.38c-35.02,-59.78 -89.44,-127.67 -139.73,-164.54l62.17 -30.57z"/>
   <path class="fil5" d="M3873.63 8153.43c30.25,39.38 60.56,77.99 89.56,118.99 99.18,140.17 69.15,119.45 181.74,119.45l-0.82 -388.26 -90.67 1.39 -0.14 238.25c-1.74,-1.37 -4,-3.25 -5.09,-4.27l-133.83 -180.29c-47.34,-67.86 -36.82,-54.88 -132.52,-54.85l-0 387.77 90.23 -0.23 1.54 -237.95z"/>
   <path class="fil5" d="M4965.12 8265.96c-4.65,74.54 -121.58,61.49 -147.49,54.02 -54.22,-15.66 -80.41,-59.79 -79.89,-127.85 1.2,-153.48 193.6,-154.64 222.06,-61.79l96.39 -15.66c-21.56,-161.89 -388.16,-173.29 -417.09,52.62 -14.64,114.21 54.26,190.68 137.27,218.01 123.81,40.75 202.56,-10.37 286.86,-42.24l0.58 -162.71 -201.53 0.74 0.19 69.57 102.65 15.29z"/>
   <path class="fil5" d="M6592.21 7559.44c36.18,30.45 140.73,192.46 176.92,236.15l93.94 0.35 -0.4 -389.38 -88.75 0.28 -1.51 243.46c-33.69,-35.72 -61.88,-80.15 -90.82,-120.77 -30.54,-42.89 -63.84,-83.03 -86.76,-123.19l-93.16 0.34 2.34 389.53 87.48 -0.93 0.72 -235.85z"/>
   <path class="fil5" d="M4374.21 7477.42c179.56,-38.81 195.3,220.86 61.9,248.15 -85.53,17.48 -140.62,-23.97 -152.54,-93.21 -15.61,-90.66 20.36,-139.74 90.64,-154.94zm243.88 173.69c62.8,-298.51 -383.85,-329.13 -431.2,-103.07 -63.55,303.4 382.63,334.03 431.2,103.07z"/>
   <path class="fil5" d="M6285.01 7549.21c34.45,-17.84 134.12,-109.37 166.4,-141.88 -126.23,-5.12 -117.17,-13.24 -185.45,56.06 -24.56,24.93 -109.19,91.3 -120.21,109.78l-2.29 -166.68 -95.13 0 -0.27 389.6 97.28 0.05c0,-102.81 -15.39,-131.39 71.89,-177.39l120.76 177.54 116.32 -0.15c-10.36,-53.41 -149,-174.39 -169.3,-246.93z"/>
   <polygon class="fil6" points="5725.52,7478.66 5968.64,7477.2 5967.17,7406.44 5627.89,7408.78 5630.09,7796.01 5975.95,7795.18 5976.73,7725.35 5725.36,7722.97 5726.3,7627.04 5952.21,7625.48 5949.05,7556.16 5725.14,7553.61 "/>
   <path class="fil5" d="M7533.51 7407.19l-112.59 -0.71c-33.18,0 -151.73,141.21 -195.48,162.54l-1.05 -162.39 -96.19 2.2 2.15 386.57 92.57 0.61c7.92,-65.64 -28.79,-124.94 74.23,-176.87l124.42 176.99 113.45 0c-7.16,-36.08 -130.47,-173.23 -169.56,-235.2l168.06 -153.74z"/>
   <polygon class="fil5" points="4330.74,8075.5 4573.35,8073.29 4574.01,8004.89 4233.72,8004.93 4233.64,8390.04 4582.85,8389.72 4582.72,8321.79 4331.59,8320.36 4330.74,8224.24 4556.67,8221.49 4556.42,8152.84 4330.74,8151.13 "/>
   <path class="fil5" d="M6460.06 8702.65l52.92 128.61 -109.85 -0.79 56.93 -127.82zm-137.67 284.79c23.97,-10.07 19.95,-15.82 30.67,-42.8 10.45,-26.27 10.06,-42.9 34.92,-42.9 190.88,0 153.46,-19.47 197.71,85.73l104.39 -0.46 -139.81 -301.78c-13.7,-27.6 -29.34,-85.2 -55.71,-85.2l-73.78 0c-22.01,5.95 -85.28,160.87 -98.18,190.41 -27.63,63.3 -64.39,132.21 -88.95,196.56l88.75 0.44z"/>
   <path class="fil5" d="M4310.2 8701.83l53.4 129.42 -109.86 -1.1 56.46 -128.32zm-127.46 284.38c18.91,-29.17 23.38,-64.03 49.18,-84.46l155.76 0c21.94,6.21 41.7,65.41 49.27,85.86l104.86 -0.94 -175.63 -371.61c-17.2,-20.11 -68.28,-20.38 -93.26,-15.03 -22.88,4.88 -36.07,52.64 -55.54,93.59 -15.97,33.56 -27.77,60.92 -43.88,95.39 -24.83,53.17 -71.56,144.83 -88.23,198.43l97.47 -1.24z"/>
   <path class="fil5" d="M3912.21 7579.35l-33.82 0 0.04 -101.25 33.83 0c71.6,0 67.02,-2.26 115.26,23.48 9,86.69 -37.61,77.77 -115.32,77.77zm-33.25 71.47c64.59,0 142.04,7.72 192.21,-21.08 40.31,-23.14 77.15,-75.51 54.01,-142.49 -37.46,-108.46 -222.26,-82.4 -343.6,-80.41l1.88 389.32 94.26 -0.88 1.25 -144.46z"/>
   <path class="fil5" d="M5147.77 8392.25l340.78 -0.71 -0.25 -70.33 -245.94 4.29c-26.1,-21.46 -16.41,-81.46 -7.36,-108.33l222.16 -0.61 0 -56.9 -222.14 -3.22c-11.68,-31.42 -9.74,-53.72 -2.33,-86.63 54.72,-21.44 178.48,-8.67 242.05,-8.81l-0.3 -51.21 -326.98 0 0.31 382.46z"/>
   <polygon class="fil5" points="6043.67,8671.04 6044.36,8987.38 6140.83,8987.32 6144.1,8670.73 6273.13,8669.94 6273.05,8600.41 5911.03,8600.24 5910.83,8670.47 "/>
   <polygon class="fil5" points="5214.11,7477.9 5346.77,7479.22 5348.85,7796.23 5443.64,7794.98 5443.98,7478.15 5575.87,7477.73 5575.33,7406.52 5213.96,7406.58 "/>
   <polygon class="fil6" points="4692.69,7796.19 5011.16,7796.15 5011.87,7725.14 4787.96,7725.11 4787.9,7410.71 4690.58,7410.71 "/>
   <path class="fil5" d="M3747.06 8864.39c9.87,176.99 201.96,137.44 247.74,98.96 72.66,-61.07 46.2,-247.31 45.81,-362.21l-96.85 -0.87c-0.13,81.75 13.15,253.72 -13.93,314.35 -22.41,6.1 -51.68,14.66 -72.78,-3.35l-26.92 -55.69 -83.08 8.8z"/>
   <path class="fil3" d="M4374.21 7477.42c-70.28,15.19 -106.25,64.27 -90.64,154.94 11.92,69.24 67.02,110.7 152.54,93.21 133.4,-27.29 117.65,-286.96 -61.9,-248.15z"/>
   <polygon class="fil5" points="6010.28,8391.89 6107.42,8389.33 6107.08,8004.82 6076.46,8003.94 6043.66,8003.9 6010.36,8004.14 "/>
   <polygon class="fil5" points="5070.51,7796.17 5165.3,7795.24 5164.16,7406.81 5068.63,7406.84 "/>
   <polygon class="fil5" points="7040.61,7406.3 6957.91,7406.91 6954.62,7793.96 7044.38,7793.99 "/>
   <path class="fil7" d="M5147.77 8392.25l-0.31 -382.46 326.98 0 0.3 51.21c-63.57,0.15 -187.33,-12.63 -242.05,8.81 -7.41,32.9 -9.34,55.21 2.33,86.63l222.14 3.22 0 56.9 -222.16 0.61c-9.05,26.86 -18.74,86.87 7.36,108.33l-2.79 -100.55 224.52 -0.18 -0.48 -73.55 -224.04 -0.03 0 -75.13 240.58 -0.08 0.65 -73.3 -340.32 0.27 0.2 369.68c4.83,34.22 0.96,7.06 7.1,19.62z"/>
   <path class="fil3" d="M5586.25 8757.78c46.11,5.89 127.51,4.67 164.23,-7.04 50.41,-98.71 -82.52,-84.3 -161.8,-78.61l-2.43 85.65z"/>
   <path class="fil3" d="M5657.16 8134.79l2.03 30.41c122.72,-0.18 182.59,14.83 169.56,-70.18 -42.17,-30.2 -96.9,-19.9 -171.4,-19.9l-0.18 59.66z"/>
   <path class="fil3" d="M3912.21 7579.35c77.71,0 124.32,8.92 115.32,-77.77 -48.24,-25.74 -43.66,-23.48 -115.26,-23.48l-33.83 0 -0.04 101.25 33.82 0z"/>
   <path class="fil8" d="M7040.61 7406.3l3.77 387.69 -89.76 -0.03 3.29 -387.05c-12.28,10.7 -7.96,1.49 -11.49,22.6l2.32 365.85c30.51,11.71 69.54,11.01 100.87,0.91 7.47,-49.74 2.92,-228.48 3.07,-300.92 0.13,-57.18 9.65,-77.58 -12.07,-89.05z"/>
   <polygon class="fil3" points="4253.75,8830.15 4363.61,8831.25 4310.2,8701.83 "/>
   <polygon class="fil3" points="6403.13,8830.48 6512.98,8831.26 6460.06,8702.65 "/>
   <polygon class="fil3" points="5159.84,8829.27 5272.33,8831.37 5218.87,8708.11 "/>
  </g>
 </g>
</svg>
